<?xml version="1.0" standalone="no"?>
<!DOCTYPE svg PUBLIC "-//W3C//DTD SVG 20010904//EN"
 "http://www.w3.org/TR/2001/REC-SVG-20010904/DTD/svg10.dtd">
<svg version="1.0" xmlns="http://www.w3.org/2000/svg"
 width="800.000000pt" height="800.000000pt" viewBox="0 0 800.000000 800.000000"
 preserveAspectRatio="xMidYMid meet">
<metadata>
Created by potrace 1.11, written by Peter Selinger 2001-2013
</metadata>
<g transform="translate(0.000000,800.000000) scale(0.100000,-0.100000)"
fill="#000000" stroke="none">
<path d="M7747 7233 c-413 -520 -745 -1009 -918 -1355 -81 -162 -121 -266
-158 -418 -55 -222 -102 -348 -209 -565 -122 -247 -139 -290 -193 -489 -23
-83 -46 -160 -52 -171 -5 -10 -37 -46 -71 -80 -34 -33 -88 -101 -122 -150 -60
-88 -265 -427 -299 -494 l-17 -34 24 8 c50 16 82 11 95 -15 17 -34 16 -89 -6
-260 -25 -192 -30 -208 -121 -400 -190 -403 -311 -790 -350 -1125 l-12 -100
51 -251 c120 -597 192 -847 231 -808 5 5 14 74 19 154 7 97 19 176 36 238 99
368 411 927 829 1487 94 127 103 142 93 165 -14 34 -13 179 2 270 20 117 66
295 138 524 36 116 74 238 84 271 10 33 32 128 48 210 17 83 56 224 86 315 74
221 80 251 110 532 35 336 57 461 121 702 114 429 219 757 330 1028 117 287
344 928 328 928 -2 0 -46 -53 -97 -117z"/>
<path d="M6630 7088 c-25 -17 -110 -76 -190 -132 -530 -367 -1001 -774 -1199
-1036 -31 -42 -94 -141 -139 -220 -111 -194 -192 -306 -330 -452 -140 -150
-179 -201 -283 -365 -104 -164 -160 -233 -341 -420 -223 -231 -294 -336 -402
-600 -70 -172 -98 -221 -176 -308 -292 -324 -549 -726 -663 -1035 -33 -90 -36
-109 -56 -355 -29 -357 -41 -558 -41 -702 0 -206 26 -222 81 -50 17 56 50 138
72 182 160 324 573 744 1170 1191 l148 111 4 54 c10 157 112 361 404 813 54
83 131 216 172 296 40 80 120 215 178 300 113 168 146 233 216 420 132 355
205 507 390 815 227 377 318 512 605 892 74 98 195 266 268 373 199 291 196
286 112 228z"/>
<path d="M3955 5879 c-355 -225 -778 -507 -992 -660 -172 -125 -555 -430 -548
-437 2 -2 30 12 62 32 95 58 104 49 42 -40 -61 -87 -83 -108 -209 -202 -143
-105 -179 -139 -294 -277 -99 -118 -173 -187 -361 -337 -201 -160 -272 -245
-400 -478 -64 -115 -78 -133 -180 -230 -377 -359 -561 -580 -710 -854 -41 -76
-47 -98 -99 -361 -66 -334 -93 -492 -105 -609 -16 -162 6 -167 77 -17 80 168
183 298 363 457 238 210 548 421 949 646 70 38 95 58 92 70 -5 27 43 153 87
228 57 96 164 237 326 430 75 91 177 224 225 295 48 72 129 177 180 235 111
124 170 214 275 415 153 293 215 386 483 725 173 218 268 325 479 543 229 236
550 597 531 597 -2 0 -125 -77 -273 -171z"/>
</g>
</svg>
